<mxfile host="app.diagrams.net" agent="Mozilla/5.0 (Windows NT 10.0; Win64; x64; rv:134.0) Gecko/20100101 Firefox/134.0" version="26.0.10">
  <diagram name="Page-1" id="xX4XU0iM5KQOnwPmTlfg">
    <mxGraphModel dx="979" dy="567" grid="0" gridSize="10" guides="1" tooltips="1" connect="1" arrows="1" fold="1" page="1" pageScale="1" pageWidth="583" pageHeight="827" math="0" shadow="0">
      <root>
        <mxCell id="0" />
        <mxCell id="1" parent="0" />
        <mxCell id="sznd5Omr1cpYhb-VCRZb-1" value="Student" style="shape=umlActor;verticalLabelPosition=bottom;verticalAlign=top;html=1;outlineConnect=0;" vertex="1" parent="1">
          <mxGeometry x="20" y="220" width="30" height="60" as="geometry" />
        </mxCell>
        <mxCell id="sznd5Omr1cpYhb-VCRZb-5" value="" style="group" vertex="1" connectable="0" parent="1">
          <mxGeometry x="180" y="50" width="100" height="60" as="geometry" />
        </mxCell>
        <mxCell id="sznd5Omr1cpYhb-VCRZb-10" value="" style="group" vertex="1" connectable="0" parent="sznd5Omr1cpYhb-VCRZb-5">
          <mxGeometry width="100" height="60" as="geometry" />
        </mxCell>
        <mxCell id="sznd5Omr1cpYhb-VCRZb-12" value="" style="group" vertex="1" connectable="0" parent="sznd5Omr1cpYhb-VCRZb-10">
          <mxGeometry width="100" height="60" as="geometry" />
        </mxCell>
        <mxCell id="sznd5Omr1cpYhb-VCRZb-2" value="" style="ellipse;whiteSpace=wrap;html=1;" vertex="1" parent="sznd5Omr1cpYhb-VCRZb-12">
          <mxGeometry width="100" height="60" as="geometry" />
        </mxCell>
        <mxCell id="sznd5Omr1cpYhb-VCRZb-3" value="Créer un compte" style="text;html=1;align=center;verticalAlign=middle;whiteSpace=wrap;rounded=0;" vertex="1" parent="sznd5Omr1cpYhb-VCRZb-12">
          <mxGeometry x="17.857142857142858" y="18.75" width="64.28571428571428" height="22.5" as="geometry" />
        </mxCell>
        <mxCell id="sznd5Omr1cpYhb-VCRZb-15" value="Se connecter" style="ellipse;whiteSpace=wrap;html=1;" vertex="1" parent="1">
          <mxGeometry x="180" y="135" width="100" height="60" as="geometry" />
        </mxCell>
        <mxCell id="sznd5Omr1cpYhb-VCRZb-16" value="Accéder au Dashboard" style="ellipse;whiteSpace=wrap;html=1;" vertex="1" parent="1">
          <mxGeometry x="350" y="90" width="100" height="60" as="geometry" />
        </mxCell>
        <mxCell id="sznd5Omr1cpYhb-VCRZb-17" value="Ecrire un message" style="ellipse;whiteSpace=wrap;html=1;" vertex="1" parent="1">
          <mxGeometry x="180" y="233" width="120" height="60" as="geometry" />
        </mxCell>
        <mxCell id="sznd5Omr1cpYhb-VCRZb-18" value="Créer une tâche" style="ellipse;whiteSpace=wrap;html=1;" vertex="1" parent="1">
          <mxGeometry x="180" y="328" width="120" height="60" as="geometry" />
        </mxCell>
        <mxCell id="sznd5Omr1cpYhb-VCRZb-19" value="Créer un évenèment" style="ellipse;whiteSpace=wrap;html=1;" vertex="1" parent="1">
          <mxGeometry x="180" y="420" width="130" height="60" as="geometry" />
        </mxCell>
        <mxCell id="sznd5Omr1cpYhb-VCRZb-20" value="Visualiser le Calendrier" style="ellipse;whiteSpace=wrap;html=1;" vertex="1" parent="1">
          <mxGeometry x="430" y="150" width="100" height="60" as="geometry" />
        </mxCell>
        <mxCell id="sznd5Omr1cpYhb-VCRZb-21" value="Envoyer un message" style="ellipse;whiteSpace=wrap;html=1;" vertex="1" parent="1">
          <mxGeometry x="400" y="233" width="140" height="60" as="geometry" />
        </mxCell>
        <mxCell id="sznd5Omr1cpYhb-VCRZb-23" value="" style="endArrow=classic;html=1;rounded=0;exitX=1;exitY=0.5;exitDx=0;exitDy=0;entryX=0;entryY=0.5;entryDx=0;entryDy=0;" edge="1" parent="1" source="sznd5Omr1cpYhb-VCRZb-17" target="sznd5Omr1cpYhb-VCRZb-21">
          <mxGeometry width="50" height="50" relative="1" as="geometry">
            <mxPoint x="570" y="410" as="sourcePoint" />
            <mxPoint x="620" y="360" as="targetPoint" />
          </mxGeometry>
        </mxCell>
        <mxCell id="sznd5Omr1cpYhb-VCRZb-24" value="" style="endArrow=classic;html=1;rounded=0;" edge="1" parent="1">
          <mxGeometry width="50" height="50" relative="1" as="geometry">
            <mxPoint x="80" y="260" as="sourcePoint" />
            <mxPoint x="170" y="350" as="targetPoint" />
          </mxGeometry>
        </mxCell>
        <mxCell id="sznd5Omr1cpYhb-VCRZb-25" value="" style="endArrow=classic;html=1;rounded=0;" edge="1" parent="1">
          <mxGeometry width="50" height="50" relative="1" as="geometry">
            <mxPoint x="80" y="260" as="sourcePoint" />
            <mxPoint x="170" y="430" as="targetPoint" />
          </mxGeometry>
        </mxCell>
        <mxCell id="sznd5Omr1cpYhb-VCRZb-26" value="" style="endArrow=classic;html=1;rounded=0;" edge="1" parent="1">
          <mxGeometry width="50" height="50" relative="1" as="geometry">
            <mxPoint x="80" y="260" as="sourcePoint" />
            <mxPoint x="170" y="260" as="targetPoint" />
          </mxGeometry>
        </mxCell>
        <mxCell id="sznd5Omr1cpYhb-VCRZb-27" value="" style="endArrow=classic;html=1;rounded=0;entryX=0;entryY=0.583;entryDx=0;entryDy=0;entryPerimeter=0;" edge="1" parent="1" target="sznd5Omr1cpYhb-VCRZb-15">
          <mxGeometry width="50" height="50" relative="1" as="geometry">
            <mxPoint x="80" y="260" as="sourcePoint" />
            <mxPoint x="170" y="260" as="targetPoint" />
          </mxGeometry>
        </mxCell>
        <mxCell id="sznd5Omr1cpYhb-VCRZb-28" value="" style="endArrow=classic;html=1;rounded=0;entryX=0;entryY=0.667;entryDx=0;entryDy=0;entryPerimeter=0;" edge="1" parent="1" target="sznd5Omr1cpYhb-VCRZb-2">
          <mxGeometry width="50" height="50" relative="1" as="geometry">
            <mxPoint x="80" y="260" as="sourcePoint" />
            <mxPoint x="180" y="170" as="targetPoint" />
          </mxGeometry>
        </mxCell>
        <mxCell id="sznd5Omr1cpYhb-VCRZb-29" value="Extend" style="text;html=1;align=center;verticalAlign=middle;whiteSpace=wrap;rounded=0;" vertex="1" parent="1">
          <mxGeometry x="320" y="235" width="60" height="30" as="geometry" />
        </mxCell>
        <mxCell id="sznd5Omr1cpYhb-VCRZb-30" value="" style="whiteSpace=wrap;html=1;aspect=fixed;fillColor=none;strokeColor=default;" vertex="1" parent="1">
          <mxGeometry x="105" y="27" width="593" height="593" as="geometry" />
        </mxCell>
        <mxCell id="sznd5Omr1cpYhb-VCRZb-31" value="Mentor" style="shape=umlActor;verticalLabelPosition=bottom;verticalAlign=top;html=1;outlineConnect=0;" vertex="1" parent="1">
          <mxGeometry x="32" y="940" width="30" height="60" as="geometry" />
        </mxCell>
        <mxCell id="sznd5Omr1cpYhb-VCRZb-32" value="" style="group" vertex="1" connectable="0" parent="1">
          <mxGeometry x="192" y="770" width="100" height="60" as="geometry" />
        </mxCell>
        <mxCell id="sznd5Omr1cpYhb-VCRZb-33" value="" style="group" vertex="1" connectable="0" parent="sznd5Omr1cpYhb-VCRZb-32">
          <mxGeometry width="100" height="60" as="geometry" />
        </mxCell>
        <mxCell id="sznd5Omr1cpYhb-VCRZb-34" value="" style="group" vertex="1" connectable="0" parent="sznd5Omr1cpYhb-VCRZb-33">
          <mxGeometry width="100" height="60" as="geometry" />
        </mxCell>
        <mxCell id="sznd5Omr1cpYhb-VCRZb-35" value="" style="ellipse;whiteSpace=wrap;html=1;" vertex="1" parent="sznd5Omr1cpYhb-VCRZb-34">
          <mxGeometry width="100" height="60" as="geometry" />
        </mxCell>
        <mxCell id="sznd5Omr1cpYhb-VCRZb-36" value="Créer un compte" style="text;html=1;align=center;verticalAlign=middle;whiteSpace=wrap;rounded=0;" vertex="1" parent="sznd5Omr1cpYhb-VCRZb-34">
          <mxGeometry x="17.857142857142858" y="18.75" width="64.28571428571428" height="22.5" as="geometry" />
        </mxCell>
        <mxCell id="sznd5Omr1cpYhb-VCRZb-37" value="Se connecter" style="ellipse;whiteSpace=wrap;html=1;" vertex="1" parent="1">
          <mxGeometry x="192" y="855" width="100" height="60" as="geometry" />
        </mxCell>
        <mxCell id="sznd5Omr1cpYhb-VCRZb-38" value="Accéder au Dashboard" style="ellipse;whiteSpace=wrap;html=1;" vertex="1" parent="1">
          <mxGeometry x="362" y="810" width="100" height="60" as="geometry" />
        </mxCell>
        <mxCell id="sznd5Omr1cpYhb-VCRZb-39" value="Ecrire un message" style="ellipse;whiteSpace=wrap;html=1;" vertex="1" parent="1">
          <mxGeometry x="192" y="953" width="120" height="60" as="geometry" />
        </mxCell>
        <mxCell id="sznd5Omr1cpYhb-VCRZb-40" value="Créer une tâche" style="ellipse;whiteSpace=wrap;html=1;" vertex="1" parent="1">
          <mxGeometry x="192" y="1048" width="120" height="60" as="geometry" />
        </mxCell>
        <mxCell id="sznd5Omr1cpYhb-VCRZb-41" value="Créer un évenèment" style="ellipse;whiteSpace=wrap;html=1;" vertex="1" parent="1">
          <mxGeometry x="192" y="1140" width="130" height="60" as="geometry" />
        </mxCell>
        <mxCell id="sznd5Omr1cpYhb-VCRZb-42" value="Visualiser le Calendrier" style="ellipse;whiteSpace=wrap;html=1;" vertex="1" parent="1">
          <mxGeometry x="442" y="870" width="100" height="60" as="geometry" />
        </mxCell>
        <mxCell id="sznd5Omr1cpYhb-VCRZb-43" value="Envoyer un message" style="ellipse;whiteSpace=wrap;html=1;" vertex="1" parent="1">
          <mxGeometry x="412" y="953" width="140" height="60" as="geometry" />
        </mxCell>
        <mxCell id="sznd5Omr1cpYhb-VCRZb-44" value="" style="endArrow=classic;html=1;rounded=0;exitX=1;exitY=0.5;exitDx=0;exitDy=0;entryX=0;entryY=0.5;entryDx=0;entryDy=0;" edge="1" parent="1" source="sznd5Omr1cpYhb-VCRZb-39" target="sznd5Omr1cpYhb-VCRZb-43">
          <mxGeometry width="50" height="50" relative="1" as="geometry">
            <mxPoint x="582" y="1130" as="sourcePoint" />
            <mxPoint x="632" y="1080" as="targetPoint" />
          </mxGeometry>
        </mxCell>
        <mxCell id="sznd5Omr1cpYhb-VCRZb-45" value="" style="endArrow=classic;html=1;rounded=0;" edge="1" parent="1">
          <mxGeometry width="50" height="50" relative="1" as="geometry">
            <mxPoint x="92" y="980" as="sourcePoint" />
            <mxPoint x="182" y="1070" as="targetPoint" />
          </mxGeometry>
        </mxCell>
        <mxCell id="sznd5Omr1cpYhb-VCRZb-46" value="" style="endArrow=classic;html=1;rounded=0;" edge="1" parent="1">
          <mxGeometry width="50" height="50" relative="1" as="geometry">
            <mxPoint x="92" y="980" as="sourcePoint" />
            <mxPoint x="182" y="1150" as="targetPoint" />
          </mxGeometry>
        </mxCell>
        <mxCell id="sznd5Omr1cpYhb-VCRZb-47" value="" style="endArrow=classic;html=1;rounded=0;" edge="1" parent="1">
          <mxGeometry width="50" height="50" relative="1" as="geometry">
            <mxPoint x="92" y="980" as="sourcePoint" />
            <mxPoint x="182" y="980" as="targetPoint" />
          </mxGeometry>
        </mxCell>
        <mxCell id="sznd5Omr1cpYhb-VCRZb-48" value="" style="endArrow=classic;html=1;rounded=0;entryX=0;entryY=0.583;entryDx=0;entryDy=0;entryPerimeter=0;" edge="1" parent="1" target="sznd5Omr1cpYhb-VCRZb-37">
          <mxGeometry width="50" height="50" relative="1" as="geometry">
            <mxPoint x="92" y="980" as="sourcePoint" />
            <mxPoint x="182" y="980" as="targetPoint" />
          </mxGeometry>
        </mxCell>
        <mxCell id="sznd5Omr1cpYhb-VCRZb-49" value="" style="endArrow=classic;html=1;rounded=0;entryX=0;entryY=0.667;entryDx=0;entryDy=0;entryPerimeter=0;" edge="1" parent="1" target="sznd5Omr1cpYhb-VCRZb-35">
          <mxGeometry width="50" height="50" relative="1" as="geometry">
            <mxPoint x="92" y="980" as="sourcePoint" />
            <mxPoint x="192" y="890" as="targetPoint" />
          </mxGeometry>
        </mxCell>
        <mxCell id="sznd5Omr1cpYhb-VCRZb-50" value="Extend" style="text;html=1;align=center;verticalAlign=middle;whiteSpace=wrap;rounded=0;" vertex="1" parent="1">
          <mxGeometry x="332" y="955" width="60" height="30" as="geometry" />
        </mxCell>
        <mxCell id="sznd5Omr1cpYhb-VCRZb-51" value="Attribuer une tâche" style="ellipse;whiteSpace=wrap;html=1;" vertex="1" parent="1">
          <mxGeometry x="422" y="1050" width="140" height="60" as="geometry" />
        </mxCell>
        <mxCell id="sznd5Omr1cpYhb-VCRZb-52" value="Extend" style="text;html=1;align=center;verticalAlign=middle;whiteSpace=wrap;rounded=0;" vertex="1" parent="1">
          <mxGeometry x="342" y="1052" width="60" height="30" as="geometry" />
        </mxCell>
        <mxCell id="sznd5Omr1cpYhb-VCRZb-53" value="" style="endArrow=classic;html=1;rounded=0;exitX=1;exitY=0.5;exitDx=0;exitDy=0;entryX=0;entryY=0.5;entryDx=0;entryDy=0;" edge="1" parent="1" target="sznd5Omr1cpYhb-VCRZb-51">
          <mxGeometry width="50" height="50" relative="1" as="geometry">
            <mxPoint x="312" y="1082" as="sourcePoint" />
            <mxPoint x="412" y="1082" as="targetPoint" />
          </mxGeometry>
        </mxCell>
        <mxCell id="sznd5Omr1cpYhb-VCRZb-54" value="&lt;div&gt;Ajouter un contact&lt;/div&gt;" style="ellipse;whiteSpace=wrap;html=1;" vertex="1" parent="1">
          <mxGeometry x="192" y="1222" width="130" height="60" as="geometry" />
        </mxCell>
        <mxCell id="sznd5Omr1cpYhb-VCRZb-55" value="" style="endArrow=classic;html=1;rounded=0;" edge="1" parent="1">
          <mxGeometry width="50" height="50" relative="1" as="geometry">
            <mxPoint x="90" y="980" as="sourcePoint" />
            <mxPoint x="180" y="1240" as="targetPoint" />
          </mxGeometry>
        </mxCell>
        <mxCell id="sznd5Omr1cpYhb-VCRZb-56" value="Supprimer un contact" style="ellipse;whiteSpace=wrap;html=1;" vertex="1" parent="1">
          <mxGeometry x="432" y="1222" width="140" height="60" as="geometry" />
        </mxCell>
        <mxCell id="sznd5Omr1cpYhb-VCRZb-57" value="Extend" style="text;html=1;align=center;verticalAlign=middle;whiteSpace=wrap;rounded=0;" vertex="1" parent="1">
          <mxGeometry x="352" y="1224" width="60" height="30" as="geometry" />
        </mxCell>
        <mxCell id="sznd5Omr1cpYhb-VCRZb-58" value="" style="endArrow=classic;html=1;rounded=0;exitX=1;exitY=0.5;exitDx=0;exitDy=0;entryX=0;entryY=0.5;entryDx=0;entryDy=0;" edge="1" parent="1" target="sznd5Omr1cpYhb-VCRZb-56">
          <mxGeometry width="50" height="50" relative="1" as="geometry">
            <mxPoint x="322" y="1254" as="sourcePoint" />
            <mxPoint x="422" y="1254" as="targetPoint" />
          </mxGeometry>
        </mxCell>
        <mxCell id="sznd5Omr1cpYhb-VCRZb-59" value="&lt;div&gt;Ajouter un contact&lt;/div&gt;" style="ellipse;whiteSpace=wrap;html=1;" vertex="1" parent="1">
          <mxGeometry x="180" y="520" width="130" height="60" as="geometry" />
        </mxCell>
        <mxCell id="sznd5Omr1cpYhb-VCRZb-60" value="Supprimer un contact" style="ellipse;whiteSpace=wrap;html=1;" vertex="1" parent="1">
          <mxGeometry x="420" y="520" width="140" height="60" as="geometry" />
        </mxCell>
        <mxCell id="sznd5Omr1cpYhb-VCRZb-61" value="Extend" style="text;html=1;align=center;verticalAlign=middle;whiteSpace=wrap;rounded=0;" vertex="1" parent="1">
          <mxGeometry x="340" y="522" width="60" height="30" as="geometry" />
        </mxCell>
        <mxCell id="sznd5Omr1cpYhb-VCRZb-62" value="" style="endArrow=classic;html=1;rounded=0;exitX=1;exitY=0.5;exitDx=0;exitDy=0;entryX=0;entryY=0.5;entryDx=0;entryDy=0;" edge="1" parent="1" target="sznd5Omr1cpYhb-VCRZb-60">
          <mxGeometry width="50" height="50" relative="1" as="geometry">
            <mxPoint x="310" y="552" as="sourcePoint" />
            <mxPoint x="410" y="552" as="targetPoint" />
          </mxGeometry>
        </mxCell>
        <mxCell id="sznd5Omr1cpYhb-VCRZb-63" value="" style="endArrow=classic;html=1;rounded=0;entryX=0;entryY=0.5;entryDx=0;entryDy=0;" edge="1" parent="1" target="sznd5Omr1cpYhb-VCRZb-59">
          <mxGeometry width="50" height="50" relative="1" as="geometry">
            <mxPoint x="80" y="260" as="sourcePoint" />
            <mxPoint x="180" y="440" as="targetPoint" />
          </mxGeometry>
        </mxCell>
        <mxCell id="sznd5Omr1cpYhb-VCRZb-65" value="" style="whiteSpace=wrap;html=1;aspect=fixed;fillColor=none;strokeColor=default;" vertex="1" parent="1">
          <mxGeometry x="123" y="747" width="552" height="552" as="geometry" />
        </mxCell>
      </root>
    </mxGraphModel>
  </diagram>
</mxfile>
